<svg width="132" height="24" viewBox="0 0 132 24" fill="none" xmlns="http://www.w3.org/2000/svg">
    <path d="M33.7665 18.8638V5.14955H36.2701V18.8638H33.7665Z" fill="white"/>
    <path d="M38.7055 18.8638V8.84965H40.9697V10.8194C40.9697 9.60445 41.7908 9.1878 41.9269 9.10737C42.4669 8.78829 43.0928 8.62875 43.8046 8.62875C44.5409 8.62875 45.1914 8.78829 45.7559 9.10737C46.3327 9.42645 46.7806 9.87438 47.0997 10.4512C47.4188 11.0157 47.5783 11.6723 47.5783 12.4209V18.8638H45.1668V12.9915C45.1668 12.5497 45.0809 12.1693 44.9091 11.8502C44.7373 11.5311 44.498 11.2857 44.1912 11.1139C43.8966 10.9298 43.5469 10.8378 43.1419 10.8378C42.7492 10.8378 42.3994 10.9298 42.0926 11.1139C41.7858 11.2857 41.5465 11.5311 41.3747 11.8502C41.2029 12.1693 41.117 12.5497 41.117 12.9915V18.8638H38.7055Z" fill="white"/>
    <path d="M54.1828 18.9743C53.0537 18.9743 52.1763 18.6675 51.5504 18.0539C50.9368 17.428 50.63 16.5505 50.63 15.4215V11.0034H48.8996V8.84965H49.0837C49.5745 8.84965 49.9556 8.6874 50.298 8.12559C50.6147 7.60575 50.63 7.05789 50.63 6.567H53.0415V8.84965H55.3425V11.0034H53.0415V15.2926C53.0415 15.624 53.0967 15.9062 53.2071 16.1394C53.3299 16.3726 53.514 16.5505 53.7594 16.6732C54.0171 16.796 54.3423 16.8573 54.735 16.8573C54.8209 16.8573 54.9191 16.8512 55.0296 16.8389C55.1523 16.8266 55.71 16.8144 55.8205 16.8021L55.3793 18.8638C55.2075 18.8884 55.0112 18.9129 54.7903 18.9375C54.5694 18.962 54.3669 18.9743 54.1828 18.9743Z" fill="white"/>
    <path d="M61.8813 19.0847C60.8504 19.0847 59.9484 18.8516 59.1752 18.3852C58.4021 17.9189 57.8007 17.2868 57.3712 16.4891C56.9417 15.6915 56.7269 14.8078 56.7269 13.8383C56.7269 12.832 56.9417 11.9423 57.3712 11.1691C57.813 10.3837 58.4082 9.76393 59.1568 9.30986C59.9177 8.85578 60.7645 8.62875 61.6972 8.62875C62.4826 8.62875 63.1698 8.75761 63.7589 9.01532C64.3603 9.27304 64.8696 9.62894 65.2868 10.083C65.7041 10.5371 66.0232 11.0587 66.2441 11.6477C66.465 12.2245 66.5754 12.8504 66.5754 13.5254C66.5754 13.6972 66.5631 13.8752 66.5386 14.0592C66.5263 14.2433 66.4956 14.4029 66.4465 14.5379H58.715V12.697H65.0843L63.943 13.5622C64.0535 12.9977 64.0228 12.4945 63.851 12.0527C63.6914 11.6109 63.4214 11.2612 63.041 11.0034C62.6728 10.7457 62.2249 10.6169 61.6972 10.6169C61.194 10.6169 60.7461 10.7457 60.3534 11.0034C59.9606 11.2489 59.66 11.617 59.4513 12.1079C59.255 12.5866 59.1814 13.1695 59.2304 13.8567C59.1814 14.4704 59.2611 15.0165 59.4697 15.4951C59.6907 15.9614 60.0097 16.3235 60.427 16.5812C60.8565 16.8389 61.3474 16.9678 61.8997 16.9678C62.4519 16.9678 62.9183 16.8512 63.2987 16.618C63.6914 16.3848 63.9982 16.0719 64.2191 15.6792L66.1704 16.6364C65.9741 17.115 65.6673 17.5384 65.25 17.9066C64.8327 18.2748 64.3357 18.5632 63.7589 18.7718C63.1944 18.9804 62.5685 19.0847 61.8813 19.0847Z" fill="white"/>
    <path d="M68.4035 18.8638V8.84965H70.6677V11.0771C70.6677 10.1918 71.0788 9.47553 71.5697 9.181C72.0729 8.88646 72.6742 8.7392 73.3737 8.7392H73.9628V10.8746H73.0976C72.4104 10.8746 71.8581 11.0893 71.4408 11.5189C71.0236 11.9361 70.815 12.5252 70.815 13.2861V18.8638H68.4035Z" fill="white"/>
    <path d="M78.326 19.0847C77.6265 19.0847 77.019 18.9682 76.5036 18.735C75.9882 18.5018 75.5893 18.1705 75.307 17.7409C75.0248 17.2991 74.8837 16.7898 74.8837 16.213C74.8837 15.6608 75.0064 15.1699 75.2518 14.7403C75.4973 14.2985 75.8777 13.9304 76.3931 13.6358C76.9086 13.3413 77.559 13.1327 78.3444 13.01L80.5185 12.7277V14.5685L78.8046 14.7956C78.326 14.8815 77.9701 15.0349 77.737 15.2558C77.5038 15.4767 77.3872 15.7651 77.3872 16.121C77.3872 16.4646 77.5161 16.7407 77.7738 16.9494C78.0438 17.1457 78.3751 17.2439 78.7678 17.2439C79.271 17.2439 79.7128 17.1396 80.0932 16.931C80.486 16.71 80.7866 16.4094 80.9953 16.0289C81.2162 15.6485 81.3266 15.2312 81.3266 14.7772V12.2C81.3266 11.7705 81.1548 11.4146 80.8112 11.1323C80.4798 10.8378 80.038 10.6905 79.4858 10.6905C78.9703 10.6905 78.5101 10.8316 78.1051 11.1139C77.7124 11.3839 77.424 11.7459 77.2399 12.2L75.2702 11.2427C75.4666 10.715 75.7734 10.261 76.1906 9.88052C76.6202 9.48781 77.1233 9.181 77.7001 8.9601C78.2769 8.7392 78.9028 8.62875 79.5778 8.62875C80.4 8.62875 81.1241 8.78215 81.75 9.08896C82.3759 9.38349 82.8606 9.80075 83.2043 10.3407C83.5602 10.8684 83.7381 11.4882 83.7381 12.2V18.8638H81.4555V17.1519L81.9709 17.115C81.7132 17.5446 81.4064 17.9066 81.0505 18.2011C80.6946 18.4834 80.2896 18.7043 79.8355 18.8638C79.3814 19.0111 78.8783 19.0847 78.326 19.0847Z" fill="white"/>
    <path d="M85.0465 18.8638L89.7775 5.14955H93.0174L97.7484 18.8638H95.0239L93.3303 13.7095H89.4646L87.7526 18.8638H85.0465ZM89.4646 13.7095H93.3303L91.0477 6.87995H91.7472L89.4646 13.7095Z" fill="white"/>
    <path d="M99.0722 22.5455V8.84965H101.336V10.8378V10.1863C101.68 9.64635 101.925 9.38349 102.515 9.08896C103.104 8.78215 103.785 8.62875 104.558 8.62875C105.503 8.62875 106.356 8.86192 107.117 9.32827C107.878 9.79461 108.479 10.4205 108.921 11.2059C109.375 11.9914 109.602 12.875 109.602 13.8567C109.602 14.8263 109.381 15.7099 108.939 16.5076C108.497 17.3053 107.896 17.9373 107.135 18.4036C106.374 18.8577 105.509 19.0847 104.539 19.0847C103.815 19.0847 103.147 18.9436 102.533 18.6613C101.932 18.3668 101.453 17.9496 101.097 17.4096L101.484 16.931V22.5455H99.0722ZM104.263 16.8757C104.816 16.8757 105.307 16.7469 105.736 16.4891C106.166 16.2314 106.497 15.8755 106.73 15.4215C106.976 14.9674 107.098 14.4458 107.098 13.8567C107.098 13.2677 106.976 12.7522 106.73 12.3104C106.497 11.8564 106.166 11.5005 105.736 11.2427C105.307 10.9728 104.816 10.8378 104.263 10.8378C103.736 10.8378 103.257 10.9666 102.828 11.2243C102.41 11.4821 102.079 11.8441 101.833 12.3104C101.6 12.7645 101.484 13.2799 101.484 13.8567C101.484 14.4458 101.6 14.9674 101.833 15.4215C102.079 15.8755 102.41 16.2314 102.828 16.4891C103.257 16.7469 103.736 16.8757 104.263 16.8757Z" fill="white"/>
    <path d="M111.44 22.5455V8.84965H113.705V10.8378V10.1739C114.048 9.63389 114.294 9.38349 114.883 9.08896C115.472 8.78215 116.153 8.62875 116.926 8.62875C117.871 8.62875 118.724 8.86192 119.485 9.32827C120.246 9.79461 120.847 10.4205 121.289 11.2059C121.743 11.9914 121.97 12.875 121.97 13.8567C121.97 14.8263 121.749 15.7099 121.307 16.5076C120.865 17.3053 120.264 17.9373 119.503 18.4036C118.742 18.8577 117.877 19.0847 116.908 19.0847C116.184 19.0847 115.515 18.9436 114.901 18.6613C114.3 18.3668 113.821 17.9496 113.465 17.4096L113.852 16.931V22.5455H111.44ZM116.632 16.8757C117.184 16.8757 117.675 16.7469 118.104 16.4891C118.534 16.2314 118.865 15.8755 119.098 15.4215C119.344 14.9674 119.466 14.4458 119.466 13.8567C119.466 13.2677 119.344 12.7522 119.098 12.3104C118.865 11.8564 118.534 11.5005 118.104 11.2427C117.675 10.9728 117.184 10.8378 116.632 10.8378C116.104 10.8378 115.625 10.9666 115.196 11.2243C114.778 11.4821 114.447 11.8441 114.202 12.3104C113.968 12.7645 113.852 13.2799 113.852 13.8567C113.852 14.4458 113.968 14.9674 114.202 15.4215C114.447 15.8755 114.778 16.2314 115.196 16.4891C115.625 16.7469 116.104 16.8757 116.632 16.8757Z" fill="white"/>
    <path d="M127.619 19.0847C126.551 19.0847 125.619 18.8332 124.821 18.33C124.036 17.8146 123.496 17.1212 123.201 16.2498L125.005 15.3846C125.263 15.9492 125.619 16.391 126.073 16.71C126.539 17.0291 127.055 17.1887 127.619 17.1887C128.061 17.1887 128.411 17.0905 128.668 16.8941C128.926 16.6978 129.055 16.4401 129.055 16.121C129.055 15.9246 129 15.7651 128.889 15.6424C128.791 15.5074 128.65 15.3969 128.466 15.311C128.294 15.2128 128.104 15.1331 127.895 15.0717L126.257 14.6115C125.41 14.366 124.766 13.9917 124.324 13.4886C123.894 12.9854 123.68 12.3902 123.68 11.703C123.68 11.0893 123.833 10.5555 124.14 10.1014C124.459 9.63507 124.895 9.27304 125.447 9.01532C126.011 8.75761 126.656 8.62875 127.38 8.62875C128.325 8.62875 129.159 8.85578 129.883 9.30986C130.607 9.76393 131.123 10.4021 131.43 11.2243L129.589 12.0895C129.417 11.6355 129.129 11.2734 128.724 11.0034C128.319 10.7334 127.865 10.5984 127.361 10.5984C126.956 10.5984 126.637 10.6905 126.404 10.8746C126.171 11.0587 126.054 11.298 126.054 11.5925C126.054 11.7766 126.103 11.9361 126.202 12.0711C126.3 12.2061 126.435 12.3166 126.607 12.4025C126.791 12.4884 126.999 12.5682 127.232 12.6418L128.834 13.1204C129.656 13.3659 130.288 13.734 130.73 14.2249C131.184 14.7158 131.411 15.3171 131.411 16.0289C131.411 16.6303 131.252 17.1641 130.933 17.6305C130.614 18.0845 130.172 18.4404 129.607 18.6982C129.043 18.9559 128.38 19.0847 127.619 19.0847Z" fill="white"/>
    <path d="M1.10297 24L9.38217 0H15.052L23.3312 24H18.5634L15.5996 14.9799H8.83452L5.83854 24H1.10297ZM8.83452 14.9799H15.5996L11.605 3.02819H12.8291L8.83452 14.9799Z" fill="white"/>
    <path d="M0 24V0H4.38121V24H0Z" fill="white"/>
</svg>
